<?xml version="1.0" encoding="UTF-8" standalone="no"?>
<!-- Created with Inkscape (http://www.inkscape.org/) -->

<svg
   xmlns:dc="http://purl.org/dc/elements/1.1/"
   xmlns:cc="http://creativecommons.org/ns#"
   xmlns:rdf="http://www.w3.org/1999/02/22-rdf-syntax-ns#"
   xmlns:svg="http://www.w3.org/2000/svg"
   xmlns="http://www.w3.org/2000/svg"
   xmlns:sodipodi="http://sodipodi.sourceforge.net/DTD/sodipodi-0.dtd"
   xmlns:inkscape="http://www.inkscape.org/namespaces/inkscape"
   width="600"
   height="300"
   viewBox="0 0 600.00001 300.00002"
   id="svg2"
   version="1.1"
   inkscape:version="0.91 r13725"
   sodipodi:docname="logo.svg"
   inkscape:export-filename="/home/bruno/Desktop/hangar/tessellate/images/logo.svg"
   inkscape:export-xdpi="90"
   inkscape:export-ydpi="90">
  <defs
     id="defs4">
    <inkscape:perspective
       sodipodi:type="inkscape:persp3d"
       inkscape:vp_x="120.71323 : 645.88418 : 1"
       inkscape:vp_y="0 : 999.99995 : 0"
       inkscape:vp_z="358.72128 : 610.52884 : 1"
       inkscape:persp3d-origin="381.64368 : 495.23926 : 1"
       id="perspective8351" />
    <inkscape:perspective
       sodipodi:type="inkscape:persp3d"
       inkscape:vp_x="278.8021 : 646.38926 : 1"
       inkscape:vp_y="0 : 999.99995 : 0"
       inkscape:vp_z="580.95484 : 621.64052 : 1"
       inkscape:persp3d-origin="539.73255 : 495.74434 : 1"
       id="perspective8165" />
    <inkscape:perspective
       sodipodi:type="inkscape:persp3d"
       inkscape:vp_x="72.730983 : 645.88419 : 1"
       inkscape:vp_y="0 : 1000.0001 : 0"
       inkscape:vp_z="310.73903 : 610.52885 : 1"
       inkscape:persp3d-origin="333.66143 : 495.23927 : 1"
       id="perspective8107" />
  </defs>
  <sodipodi:namedview
     id="base"
     pagecolor="#ffffff"
     bordercolor="#666666"
     borderopacity="1.0"
     inkscape:pageopacity="0.0"
     inkscape:pageshadow="2"
     inkscape:zoom="0.98994949"
     inkscape:cx="230.51349"
     inkscape:cy="183.07136"
     inkscape:document-units="px"
     inkscape:current-layer="layer1"
     showgrid="false"
     inkscape:window-width="1920"
     inkscape:window-height="1021"
     inkscape:window-x="0"
     inkscape:window-y="27"
     inkscape:window-maximized="1"
     units="px" />
  <metadata
     id="metadata7">
    <rdf:RDF>
      <cc:Work
         rdf:about="">
        <dc:format>image/svg+xml</dc:format>
        <dc:type
           rdf:resource="http://purl.org/dc/dcmitype/StillImage" />
        <dc:title></dc:title>
      </cc:Work>
    </rdf:RDF>
  </metadata>
  <g
     inkscape:label="Layer 1"
     inkscape:groupmode="layer"
     id="layer1"
     transform="translate(0,-752.3623)">
    <g
       id="g8768"
       transform="matrix(0.73394594,0,0,0.73394594,77.109555,486.81141)"
       style="fill:#f2f2f2">
      <path
         inkscape:export-ydpi="83.628311"
         inkscape:export-xdpi="83.628311"
         inkscape:export-filename="/home/bruno/Desktop/hangar/tessellate/images/logo.png"
         inkscape:connector-curvature="0"
         id="path8684"
         d="m 368.22846,681.3096 c -0.71263,-0.1614 -2.89912,-0.6136 -4.85885,-1.0048 -13.55277,-2.706 -25.97609,-14.00144 -30.66898,-27.88467 -1.2072,-3.57131 -2.4941,-13.07495 -1.95924,-14.46878 0.26301,-0.68543 1.31825,-0.976 3.54444,-0.976 l 3.16992,0 0.0114,2.42943 c 0.0186,4.00821 1.78417,11.11983 3.86438,15.56503 2.81859,6.02326 10.01505,13.07005 16.31198,15.97285 6.17369,2.84594 11.6637,3.89844 17.68164,3.38964 14.77081,-1.2485 26.40867,-10.84991 31.14597,-25.69575 0.99953,-3.1323 1.17351,-7.35056 1.43902,-34.88845 l 0.30204,-31.32532 -5.73916,5.75815 c -9.22759,9.25812 -18.44911,13.17179 -30.99218,13.15329 -7.79342,-0.0115 -13.35963,-1.22146 -19.44841,-4.22762 -11.65799,-5.75581 -20.18262,-16.23811 -23.42372,-28.80298 -1.44807,-5.61375 -1.42168,-15.84022 0.0552,-21.37894 3.36027,-12.60221 11.75931,-22.85077 23.36854,-28.51444 6.54951,-3.19523 12.10488,-4.504 19.16981,-4.51616 19.47967,-0.0335 36.59566,12.88398 42.47872,32.05884 1.11119,3.62176 1.1926,7.07078 1.1926,50.53202 0,52.67351 0.0683,51.82798 -5.00684,62.05517 -2.04574,4.12257 -3.82184,6.48871 -7.88662,10.50635 -5.65832,5.59304 -10.3178,8.43774 -17.33753,10.58514 -4.20325,1.2858 -13.80942,2.2679 -16.41398,1.678 z m 14.06441,-88.39404 c 21.99458,-6.88654 32.24254,-32.06856 21.42668,-52.65118 -4.49968,-8.56292 -13.67004,-15.77702 -23.21589,-18.26339 -2.09082,-0.5446 -6.30278,-0.99017 -9.35989,-0.99017 -10.59493,0 -18.13773,3.19614 -25.93981,10.99159 -7.24571,7.23956 -10.94515,16.00063 -10.97619,25.994 -0.013,4.1635 1.91216,12.29274 3.77086,15.92344 5.28794,10.32925 15.85664,18.30557 26.86006,20.27157 4.64676,0.83025 12.55629,0.25141 17.43418,-1.27586 z m -209.04308,7.73757 c -14.3532,-2.2032 -26.65321,-11.13337 -32.97607,-23.94158 -3.80862,-7.71509 -5.19841,-14.27267 -4.68684,-22.11423 1.46291,-22.42381 19.1245,-39.91024 41.60422,-41.1916 20.04871,-1.14278 38.47467,11.96124 44.35165,31.54168 1.60599,5.35067 1.67337,7.00519 1.40612,34.53158 l -0.16197,16.68204 -3.23923,0 -3.23923,0 0,-7.12181 0,-7.1218 -5.66866,5.71977 c -4.60562,4.64714 -6.70132,6.22445 -11.17535,8.41105 -3.02869,1.48022 -7.12951,3.10161 -9.11295,3.6031 -5.01097,1.26696 -12.51177,1.70635 -17.10169,1.0018 z m 13.58164,-7.41027 c 11.11315,-2.33323 20.47407,-9.60575 25.55036,-19.85013 2.31147,-4.66476 2.8294,-6.47414 3.44758,-12.04437 0.623,-5.61358 0.57038,-7.2828 -0.36638,-11.62304 -1.66013,-7.69186 -4.4112,-12.70197 -10.11217,-18.41584 -7.61583,-7.63305 -15.66087,-10.9555 -26.4874,-10.93882 -9.16433,0.0141 -17.55682,3.38226 -24.41619,9.79884 -7.54694,7.0598 -11.21017,14.7795 -11.79364,24.85327 -0.63226,10.91601 3.05033,20.49732 10.86477,28.26784 8.89074,8.84077 21.15532,12.50481 33.31307,9.95225 z m 274.36301,7.66468 c -10.55785,-1.34484 -18.83009,-5.37447 -26.29474,-12.80887 -8.42684,-8.39269 -12.3712,-17.14079 -13.01466,-28.8649 -0.41417,-7.54659 0.80541,-13.91173 3.90572,-20.38438 4.72702,-9.86879 11.14353,-16.35231 20.91029,-21.12864 12.30332,-6.0168 25.85919,-5.93622 38.46372,0.22864 4.36372,2.1343 6.66481,3.84089 11.08634,8.22212 4.68787,4.64513 6.05931,6.51244 8.58088,11.68332 4.34732,8.91491 4.95094,13.34846 4.95094,36.36427 l 0,18.70269 -3.53884,0 -3.53884,0 -0.18627,-5.82542 -0.18627,-5.82542 -2.72605,3.52705 c -5.07971,6.57231 -14.59499,12.74084 -22.907,14.85002 -4.09103,1.03812 -12.12192,1.69048 -15.50522,1.25952 z m 11.98516,-7.66049 c 17.7425,-3.70876 30.61344,-20.68488 29.22646,-38.5482 -0.73507,-9.4672 -4.16188,-16.77882 -11.11444,-23.71437 -7.18531,-7.1677 -15.56391,-10.62151 -25.7668,-10.62151 -32.65893,0 -49.04566,39.37223 -26.03323,62.54972 5.88424,5.92647 11.77533,9.01951 20.73109,10.88465 2.85215,0.59399 8.66342,0.34717 12.95692,-0.55029 z m -434.381119,-63.16637 0,-62.84113 3.563156,0 3.563157,0 0,33.09835 0,33.09836 2.479431,-3.13672 c 8.199892,-10.37363 19.299661,-16.12893 32.504292,-16.85364 8.040163,-0.44127 14.134695,0.84621 21.702853,4.58477 12.97142,6.40769 21.01821,17.42192 23.92566,32.74877 0.77365,4.0784 1.01644,9.75126 1.01644,23.75029 l 0,18.39206 -3.4817,0 -3.48169,0 -0.29475,-20.89306 -0.29476,-20.89305 -1.95801,-5.61358 c -5.38441,-15.43702 -18.85772,-25.15913 -34.866582,-25.15913 -16.472296,0 -30.488871,10.4334 -35.683939,26.56171 -0.975768,3.02932 -1.18718,6.74193 -1.41112,24.78013 l -0.263402,21.21698 -3.509521,0 -3.509515,0 0,-62.84111 z m 195.487699,45.51121 c -0.25538,-27.3256 -0.31053,-26.36889 1.88132,-32.63057 4.64053,-13.25697 14.41737,-22.89602 28.01915,-27.6243 4.27,-1.48436 5.99299,-1.7151 13.01937,-1.7436 6.72329,-0.0273 8.92295,0.2236 12.95692,1.47766 7.2726,2.26087 12.67339,5.54604 18.19479,11.06744 5.65124,5.65124 9.19835,11.53804 11.54394,19.15836 1.53147,4.97538 1.60852,6.07208 1.85544,26.40793 l 0.2576,21.21698 -3.56316,0 -3.56315,0 -0.2634,-21.21698 c -0.22394,-18.0382 -0.43536,-21.75081 -1.41113,-24.78013 -1.98954,-6.17662 -5.0595,-11.16822 -9.76672,-15.8801 -7.1525,-7.15965 -15.69798,-10.68161 -25.91721,-10.68161 -16.01266,0 -29.49874,9.73333 -34.85935,25.15913 l -1.95077,5.61358 -0.30623,20.89305 -0.30621,20.89306 -2.82961,0 -2.82963,0 -0.16196,-17.3299 z m 283.28049,-3.56316 c 0.0109,-23.70324 0.30614,-25.9279 4.59477,-34.61797 9.84584,-19.95068 34.2259,-29.31598 54.99754,-21.12666 15.3994,6.07132 26.62028,20.90333 27.69685,36.61039 l 0.3457,5.04358 -3.30244,0 -3.30245,0 -0.35681,-2.42942 c -1.7436,-11.87223 -4.29411,-17.6213 -10.69851,-24.11525 -4.84679,-4.91458 -12.34587,-9.10905 -18.61088,-10.40967 -5.7492,-1.19353 -15.14575,-0.49 -20.42251,1.52904 -9.00968,3.44739 -16.0806,9.82464 -20.22315,18.23924 -3.44686,7.0015 -3.66738,8.92461 -3.61936,31.56408 l 0.0437,20.6057 -3.57601,0 -3.57601,0 0.01,-20.89306 z"
         style="fill:#f2f2f2" />
      <path
         sodipodi:nodetypes="cccsccccscc"
         inkscape:connector-curvature="0"
         id="path8766"
         d="m 645.504,536.92763 6.33663,-6.33382 c 5.38695,2.57353 9.04697,6.38058 11.10068,11.335 1.32973,-8.80505 4.62626,-18.75675 0.0218,-26.41515 -12.10001,-20.12543 -42.63863,-41.07199 -68.13737,-40.89965 27.22129,-5.03367 52.49327,6.72549 77.10307,35.67723 -1.27557,-0.67525 4.00282,-15.03507 12.91025,-16.01232 -16.09932,-21.98883 -71.38659,-33.89814 -107.25372,-18.34126 21.92966,-2.21939 61.94884,24.32279 61.34969,67.06965 -0.004,0.26497 1.69294,-1.20577 6.569,-6.07968 z"
         style="fill:#f2f2f2" />
    </g>
  </g>
</svg>
